HIERARCHY
ROOT Bip001_Pelvis
{
  OFFSET 34.4345 95.6767 -26.8758
  CHANNELS 6 Xposition Yposition Zposition Zrotation Xrotation Yrotation
  JOINT Bip001_Spine
  {
    OFFSET 1.4188e-005 10.2191 -0.0116013
    CHANNELS 3 Zrotation Xrotation Yrotation
    JOINT Bip001_L_Thigh
    {
      OFFSET 11.0458 -10.2192 0.0116197
      CHANNELS 3 Zrotation Xrotation Yrotation
      JOINT Bip001_L_Calf
      {
        OFFSET -0.707118 -44.0221 0.360014
        CHANNELS 3 Zrotation Xrotation Yrotation
        JOINT Bip001_L_Foot
        {
          OFFSET -0.651902 -40.5938 -3.56146
          CHANNELS 3 Zrotation Xrotation Yrotation
          JOINT Bip001_L_Toe0
          {
            OFFSET 0.0530839 -10.2181 13.1504
            CHANNELS 3 Zrotation Xrotation Yrotation
            End Site
            {
              OFFSET -1.02532e-005 0 7.55606
            }
          }
        }
      }
    }
    JOINT Bip001_R_Thigh
    {
      OFFSET -11.0458 -10.2191 0.0115893
      CHANNELS 3 Zrotation Xrotation Yrotation
      JOINT Bip001_R_Calf
      {
        OFFSET 0.706994 -44.0221 0.35984
        CHANNELS 3 Zrotation Xrotation Yrotation
        JOINT Bip001_R_Foot
        {
          OFFSET 0.651786 -40.5938 -3.5613
          CHANNELS 3 Zrotation Xrotation Yrotation
          JOINT Bip001_R_Toe0
          {
            OFFSET -0.0531479 -10.2181 13.1504
            CHANNELS 3 Zrotation Xrotation Yrotation
            End Site
            {
              OFFSET -1.02894e-005 0 7.55606
            }
          }
        }
      }
    }
    JOINT Bip001_Spine1
    {
      OFFSET 1.87041e-005 14.5736 1.08638
      CHANNELS 3 Zrotation Xrotation Yrotation
      JOINT Bip001_Spine2
      {
        OFFSET 2.24614e-005 14.5058 -1.69078
        CHANNELS 3 Zrotation Xrotation Yrotation
        JOINT Bip001_Neck
        {
          OFFSET 2.20278e-005 15.3945 -0.489414
          CHANNELS 3 Zrotation Xrotation Yrotation
          JOINT Bip001_L_Clavicle
          {
            OFFSET 6.06036 -0.000579998 0.00836775
            CHANNELS 3 Zrotation Xrotation Yrotation
            JOINT Bip001_L_UpperArm
            {
              OFFSET 11.5509 -0.0600302 0.00193952
              CHANNELS 3 Zrotation Xrotation Yrotation
              JOINT Bip001_L_Forearm
              {
                OFFSET 25.9523 0.0806089 -2.15551
                CHANNELS 3 Zrotation Xrotation Yrotation
                JOINT Bip001_L_Hand
                {
                  OFFSET 32.2475 0.153767 1.63968
                  CHANNELS 3 Zrotation Xrotation Yrotation
                  JOINT Bip001_L_Finger0
                  {
                    OFFSET 6.04639 -2.20976 5.90322
                    CHANNELS 3 Zrotation Xrotation Yrotation
                    End Site
                    {
                      OFFSET 4.22375 -1.43895 0.606485
                    }
                  }
                  JOINT Bip001_L_Finger1
                  {
                    OFFSET 11.0826 -0.704819 -0.198153
                    CHANNELS 3 Zrotation Xrotation Yrotation
                    End Site
                    {
                      OFFSET 6.20027 -0.397518 -0.0787166
                    }
                  }
                }
              }
            }
          }
          JOINT Bip001_R_Clavicle
          {
            OFFSET -6.06037 -0.000563197 0.00835105
            CHANNELS 3 Zrotation Xrotation Yrotation
            JOINT Bip001_R_UpperArm
            {
              OFFSET -11.5509 -0.0599978 0.00190698
              CHANNELS 3 Zrotation Xrotation Yrotation
              JOINT Bip001_R_Forearm
              {
                OFFSET -25.9523 0.0806822 -2.15589
                CHANNELS 3 Zrotation Xrotation Yrotation
                JOINT Bip001_R_Hand
                {
                  OFFSET -32.2475 0.153859 1.63989
                  CHANNELS 3 Zrotation Xrotation Yrotation
                  JOINT Bip001_R_Finger0
                  {
                    OFFSET -6.04641 -2.20976 5.90317
                    CHANNELS 3 Zrotation Xrotation Yrotation
                    End Site
                    {
                      OFFSET -4.22376 -1.43895 0.60647
                    }
                  }
                  JOINT Bip001_R_Finger1
                  {
                    OFFSET -11.0826 -0.704794 -0.198182
                    CHANNELS 3 Zrotation Xrotation Yrotation
                    End Site
                    {
                      OFFSET -6.20028 -0.397504 -0.0787333
                    }
                  }
                }
              }
            }
          }
          JOINT Bip001_Head
          {
            OFFSET 1.09673e-005 11.2744 2.05948
            CHANNELS 3 Zrotation Xrotation Yrotation
            End Site
            {
              OFFSET 2.89576e-005 20.8808 -2.77728e-005
            }
          }
        }
      }
    }
  }
}
MOTION
Frames:	12
Frame Time:	0.04
32.0185 95.9326 -32.1675 0.376165 -1.92027 -4.40721 0.10317 2.30673 -0.466255 5.38548 -0.00057841 12.7035 0.528324 5.29924 1.22048 -0.686735 -3.03168 0.0349953 0.632292 -4.23004 0.115488 -4.89231 -4.15892 0.915274 0.606264 10.2484 0.138348 -4.06922 -8.21231 3.79035 2.2001 -7.5176 2.36329 0.210975 4.63521 -0.934825 0.210976 4.63523 -0.93483 2.05328 -3.63692 -0.935348 -25.7371 5.7994 -3.88639 -46.2337 38.4019 -4.87669 12.965 -8.91671 -29.0315 9.55212 0.0882364 -4.70943 3.18055e-015 -9.54166e-015 -3.18055e-015 -5.29669e-031 -9.54167e-015 -3.18055e-015 24.3863 11.9601 20.8939 61.936 38.0185 -13.1279 -20.9335 10.4542 11.1998 10.4504 -4.7929 -0.97136 3.97569e-016 6.36111e-015 -1.78906e-015 1.10348e-032 3.18056e-015 -1.98785e-016 -0.824049 1.93161 -0.168704 
32.1157 95.9078 -32.1456 0.464453 -1.9603 -5.23342 0.104808 2.30832 -0.506598 5.10189 0.203366 13.0097 0.639775 5.30241 1.70057 -0.466305 -2.95475 0.032124 0.738443 -4.31666 0.0018839 -5.09482 -4.58765 0.825348 0.551196 10.8802 0.369506 -3.97583 -8.48142 4.45078 2.20359 -7.53627 2.38718 0.220503 4.61563 -1.01846 0.220502 4.61566 -1.01846 1.93054 -3.84431 -0.206815 -25.5724 6.27643 -4.3566 -46.5445 39.3984 -4.31585 12.8495 -9.01852 -29.7271 9.57171 0.451328 -4.30392 3.18055e-015 -6.36111e-015 -3.18055e-015 3.18055e-015 -3.18056e-015 -0 24.6595 11.6871 19.6575 64.7849 37.5952 -15.5545 -20.5842 9.3011 10.2566 11.7495 -5.54369 -0.238195 -1.59028e-015 -3.18055e-015 3.97569e-016 -7.95139e-016 3.18056e-015 -0 -0.825127 1.91013 0.502093 
32.1676 95.8706 -32.0655 0.430562 -2.25016 -5.86609 0.121243 2.40122 -0.652591 5.09146 0.412113 12.9183 0.436578 5.66129 2.48972 -0.0338822 -2.97867 0.0185925 0.813439 -4.59316 -0.0153102 -5.17151 -4.71114 0.946145 0.531826 11.3516 0.364153 -3.90264 -8.71252 5.04297 2.19692 -7.54883 2.39691 0.265215 4.8009 -1.31196 0.26701 4.8009 -1.31181 1.75463 -4.02114 0.640583 -25.212 6.65374 -4.58951 -47.1635 40.1561 -3.62775 13.5073 -7.64877 -29.8792 9.39588 0.391681 -4.59933 3.18055e-015 -3.18055e-015 -3.18055e-015 9.54166e-015 3.18056e-015 -6.36111e-015 24.9654 11.2953 18.2584 66.05 35.1599 -16.7788 -21.3901 8.86666 11.0957 12.5307 -5.75104 0.478774 3.97569e-015 -9.54166e-015 -7.95139e-016 3.18055e-015 -9.54167e-015 -0 -0.696247 1.84295 1.23813 
32.1704 95.8363 -31.9752 0.329939 -2.61372 -6.57243 0.111826 2.51268 -0.784138 5.14021 0.73625 13.0474 0.36966 5.98513 3.23851 0.0785513 -3.16379 0.0149277 0.965124 -4.70218 -0.166313 -5.09926 -4.74083 1.30992 0.504895 11.7366 0.465148 -3.93412 -8.88392 5.3404 2.20749 -7.57223 2.41213 0.25699 5.02359 -1.57552 0.257239 5.02359 -1.5754 1.99939 -3.58064 1.35829 -25.1424 6.45756 -5.14955 -48.1782 40.599 -2.42121 14.051 -6.44391 -29.9762 8.95338 0.435598 -4.50739 -6.36111e-015 -6.36111e-015 -3.18055e-015 -6.36111e-015 -6.36111e-015 -3.18055e-015 25.1085 10.3709 16.9028 65.7843 32.1426 -16.8541 -22.0855 8.45487 12.4528 12.4802 -6.17104 1.58919 -7.95139e-016 3.18055e-015 7.95139e-016 0 6.36111e-015 -0 -0.853626 1.24774 2.05571 
32.1609 95.7918 -31.8871 0.310433 -2.75068 -7.29676 0.110208 2.57728 -0.948045 5.06402 0.940882 13.9631 0.390355 6.116 2.94744 0.788117 -2.91431 -0.00641247 1.14102 -5.2292 -0.240887 -5.097 -5.02266 2.03934 0.569567 12.2422 0.373287 -3.90632 -9.09466 5.52112 2.21128 -7.58957 2.42292 0.266311 5.15237 -1.90389 0.264199 5.15238 -1.904 1.72167 -3.23857 2.17559 -24.848 6.39993 -5.72274 -49.2985 40.8845 -1.02774 14.407 -5.76844 -29.667 8.4825 0.591605 -4.40767 -9.54166e-015 -3.18055e-015 -1.59028e-015 -1.27222e-014 0 -1.59028e-015 25.4716 9.41917 15.481 65.5814 30.163 -16.4334 -22.3698 6.64264 13.597 11.3075 -6.92613 2.16508 -3.97569e-016 6.36111e-015 -1.19271e-015 -3.97569e-016 9.54167e-015 -0 -0.464529 0.983886 2.68112 
32.1384 95.7909 -31.7628 0.207444 -2.7571 -7.82296 0.146099 2.62513 -1.17134 5.12588 1.15807 14.1292 0.30283 6.09888 3.59631 0.502121 -3.16166 0.00270923 1.1265 -5.10294 -0.244515 -5.05149 -5.06019 2.58707 0.644582 12.1573 0.339928 -3.83579 -9.08367 5.70759 2.20329 -7.5777 2.42547 0.3465 5.24671 -2.35308 0.3465 5.2467 -2.35308 1.62285 -2.90209 3.18229 -24.6853 6.40743 -6.41397 -50.585 41.0576 0.264796 14.177 -5.70373 -28.8791 8.06785 0.384668 -4.3395 -8.82781e-032 3.18055e-015 1.59028e-015 -1.76556e-031 6.36111e-015 1.59028e-015 25.465 8.48039 14.2157 65.1699 28.3693 -15.2438 -22.5575 5.76568 13.9865 9.33691 -7.6943 3.25835 -1.98785e-016 -3.18055e-015 1.98785e-016 9.93923e-017 -9.54167e-015 -0 -0.769609 1.02382 3.71063 
32.1494 95.8144 -31.5774 0.183871 -2.84718 -8.26043 0.172288 2.64944 -1.30768 4.97377 1.73465 12.6625 0.145095 5.49462 5.71758 0.24508 -3.1895 0.0106452 1.02884 -4.87845 -0.168282 -5.10188 -4.81796 3.12501 0.688469 11.8387 0.328988 -3.81832 -9.04596 5.74525 2.19759 -7.55946 2.42704 0.405781 5.29423 -2.62755 0.405783 5.29425 -2.62756 1.09101 -2.28219 3.89696 -24.2349 6.11449 -7.28223 -51.6853 41.6569 1.46006 13.7681 -5.6272 -27.6176 7.96978 0.553415 -4.12645 3.18055e-015 -3.18055e-015 -1.59028e-015 3.18055e-015 -6.36111e-015 -3.18055e-015 25.5047 7.33257 13.3049 64.8949 24.8208 -13.8457 -23.0895 5.38405 14.7748 6.69492 -8.34317 3.41709 0 3.18055e-015 -0 -1.98785e-016 3.18056e-015 -1.98785e-016 -0.70488 0.733997 4.25981 
32.1519 95.7725 -31.3502 0.0168437 -3.08253 -8.75628 0.205118 2.6794 -1.33745 5.01978 2.05566 15.1613 0.312349 5.8435 3.50864 0.700771 -3.30224 -0.00266976 1.11038 -5.18985 -0.194053 -5.01904 -4.56339 3.38207 0.612475 11.8897 0.39505 -3.74165 -9.17639 5.98053 2.21857 -7.62144 2.43694 0.473818 5.3531 -2.69065 0.473656 5.35312 -2.68979 0.808922 -2.07185 4.33645 -23.605 6.04728 -7.80862 -53.3117 42.346 2.58859 13.6332 -5.18999 -26.171 7.35779 0.887138 -3.84126 -6.36111e-015 -3.18055e-015 1.59028e-015 -6.36111e-015 -6.36111e-015 1.59028e-015 25.7573 6.75353 12.4739 64.5023 21.0222 -13.408 -23.8251 -0.426885 16.4889 5.64185 -8.98225 3.54927 -1.59028e-015 0 -0 3.97569e-016 3.18056e-015 -1.59028e-015 -0.813014 0.954104 4.63759 
32.1483 95.7514 -31.202 -0.360045 -3.16991 -8.91087 0.280753 2.68521 -1.34547 5.52437 1.99565 15.2399 0.0276846 6.68518 3.66912 0.553349 -4.00429 0.00764461 1.10934 -5.06425 -0.208274 -4.73251 -4.16029 3.30186 0.505064 11.4992 0.40495 -3.69089 -9.06379 6.20042 2.24847 -7.71413 2.47062 0.626332 5.36384 -2.70605 0.626089 5.36377 -2.70736 0.687617 -1.92688 4.60477 -23.3583 6.00405 -8.14423 -54.5043 42.6359 3.7872 13.81 -4.40991 -25.4013 5.65571 1.62298 -3.406 -0 -6.36111e-015 -0 -0 -6.36111e-015 -0 25.9046 6.45161 12.1534 64.0657 15.6329 -13.8968 -25.4366 -4.05946 19.9627 3.40989 -10.5409 2.7435 7.95139e-016 -1.59028e-015 1.59028e-015 3.97569e-016 -1.59028e-015 1.59028e-015 -0.972664 1.10908 4.91722 
32.2221 95.7193 -31.0737 -0.432056 -3.09488 -8.75307 0.275199 2.64238 -1.31918 5.70024 1.76653 14.7994 -0.138821 7.26282 3.92361 0.611449 -4.39431 0.00896928 1.07326 -5.00946 -0.176049 -4.66866 -4.10703 2.95079 0.405126 11.5821 0.512766 -3.76109 -9.15123 6.24491 2.28737 -7.83756 2.51688 0.612432 5.27751 -2.6548 0.612388 5.27753 -2.65533 0.589602 -2.03684 4.68693 -22.8099 6.0576 -8.1568 -55.6967 42.8026 4.90363 14.3684 -3.0559 -24.9614 4.25399 1.63829 -2.98126 3.18055e-015 3.18055e-015 1.59028e-015 -4.41391e-032 3.18056e-015 7.95139e-016 26.1751 6.3407 11.4814 62.295 10.2421 -14.522 -25.9232 -5.95782 25.478 -1.73096 -11.2348 1.90242 -5.86415e-015 2.38542e-015 3.18055e-015 -4.96962e-015 1.59028e-015 1.59028e-015 -0.8955 1.57299 4.94532 
32.3153 95.6669 -30.8486 -0.606222 -3.25482 -8.40605 0.282438 2.63928 -1.31375 5.92055 1.69229 14.9169 -0.243251 7.95606 3.36615 1.24395 -4.55608 0.0100467 1.25342 -5.33292 -0.307314 -4.53301 -3.70871 3.19271 0.386247 11.5666 0.470431 -3.98082 -9.18477 5.77445 2.35299 -8.00854 2.5364 0.62663 5.27653 -2.64475 0.62663 5.27653 -2.64476 0.746891 -1.62322 4.84305 -22.546 5.6369 -8.30435 -57.1466 43.1168 6.48087 14.8576 -2.95507 -25.0612 4.17348 1.55745 -2.93924 -6.36111e-015 0 2.38542e-015 -3.18055e-015 0 3.18055e-015 26.0092 5.74584 10.9938 60.4032 3.85652 -15.7579 -28.5833 -6.19189 32.8496 -5.00819 -10.9678 2.07466 4.52235e-015 1.19271e-015 -0 3.52843e-015 9.93924e-016 -0 -1.25651 1.29223 5.22476 
32.3901 95.6206 -30.5998 -0.705534 -3.32914 -7.50589 0.314846 2.62152 -1.37309 6.26872 1.41372 15.3146 -0.471473 8.83703 2.26091 1.31169 -5.18274 0.0116883 1.26864 -5.22719 -0.362687 -4.43424 -3.19813 3.53388 0.42983 11.401 0.303293 -4.36366 -9.19052 4.79904 2.41246 -8.21283 2.62916 0.693652 5.2347 -2.76494 0.693655 5.23471 -2.76496 0.552376 -1.40327 5.11088 -22.0583 5.43978 -8.51798 -58.0838 42.5895 7.67906 14.6742 -3.28014 -25.5008 5.01854 1.22481 -3.20532 0 0 -1.59028e-015 -0 -6.36111e-015 -0 25.7917 5.27057 10.5252 57.6664 -4.99767 -17.3143 -33.6235 -1.86153 42.3551 -8.80096 -11.6667 3.73001 -5.56597e-015 2.78299e-015 3.18055e-015 -4.57205e-015 2.38542e-015 3.18055e-015 -1.53041 1.17648 5.48367 
